<svg id="Layer_1" data-name="Layer 1" xmlns="http://www.w3.org/2000/svg" viewBox="0 0 750.74 177.09"><defs><style>.cls-1{fill:#489f08;}</style></defs><path class="cls-1" d="M342.35,22.07c4.56,13.39-.57,32.06-15.19,55.47A36,36,0,0,1,342,83.71c12.6-14.31,24.61-45.78,20.13-64A26.42,26.42,0,0,0,342.9.49C337.14-1,333.4.64,331.45,9A22.48,22.48,0,0,1,342.35,22.07ZM296.53,146.78a52.46,52.46,0,0,1-18.9-21.24,3.35,3.35,0,0,0-.87.4h0c-5.33,3.06-14.81,14.23-12,22.18,6.94,19.72,32,29.24,39.39,29,6.15-.25,11.71-3.91,16.51-10.9,1.27-1.85,3-7.68,3-8C322.9,154.62,316.13,159.87,296.53,146.78Zm90-38.18a12.17,12.17,0,0,0-16.88-5.08c-4.11,2.36-8.1,6.67-11.88,12.81-1.61,2.54-5.89,4.72-11.15,3.35a1.41,1.41,0,0,1-1-1.73c.68-2.61,4.28,1,8.53-2a10.46,10.46,0,0,1-3.74-6.19C348.05,98.23,362,89,362,88.92c-2.55-6.89.84-12.15,4.22-15.36a1.42,1.42,0,0,1,2,0c2.42,2.54-7.13,4.2-3.27,15.13.14,0,14.95,20.91,26.84,2.14,2.6-4.71,5.4-9.69,6-15C399.4,62.37,384,51,368.75,53.4c-2.91.47-5.69,1.11-7.75,1.55-4.55,13-11.45,24.44-16.73,30.5a38.81,38.81,0,0,1,3.4,3.3,1.4,1.4,0,0,1-.1,2,1.42,1.42,0,0,1-2-.09c-11.15-12.29-26.49-10.79-26.64-10.76a1.44,1.44,0,0,1-.92-.22,1.41,1.41,0,0,1,.61-2.6,27.62,27.62,0,0,1,5.46,0c35-55.29,5.23-65.82,5.17-66a.05.05,0,0,1-.05,0,9.14,9.14,0,0,0-8.15.28c-14.4,7.74-7,41.44-19.67,58-7.74,9.19-19.54,28.7-15.07,43.88a7.51,7.51,0,0,1-2.3,8,18.55,18.55,0,0,0-3.48,3.74,49.32,49.32,0,0,0,17.57,19.43c14,9.38,23.37,9.31,25,9.68a15.55,15.55,0,0,0,1.18-2.42h0a18,18,0,0,1-4.87-2.08,11.8,11.8,0,0,1-3.85-3.85,1.41,1.41,0,1,1,2.43-1.45c2.78,4.6,9.82,5.18,9.88,5.19s.1,0,.16,0h.07l1.56,0c11.85.33,31.67.88,46.13-14.38C383,127.33,390.72,117.2,386.56,108.6Z"/><path class="cls-1" d="M171.15,77.2H184c6.25,0,7.76-2.26,8.95-8.08H172.66l2.48-11.64c-6,0-10.67,6.79-11.86,12.39l-7.76,36.65a23.24,23.24,0,0,0-.65,5.49c0,10.24,6.79,15,16.17,15,4.74,0,9.27-1.18,10.45-6.79l.65-2.91h-.32c-2.8,1.51-6.79,1.62-9.92,1.62-6.68,0-7.54-4.42-7.54-8a22.16,22.16,0,0,1,.54-4.63Zm-42.47-9.27C101.2,67.93,96.14,98,96.14,102v.43c0,23.06,17.46,24.68,22.74,24.68,6.68,0,18.86-1.62,20.47-10.13l.76-3.88h-.54a29.22,29.22,0,0,1-18.54,6c-4.42,0-15.41-1.18-15.41-15.3a15.68,15.68,0,0,1,.22-2.15h5.49c27.59,0,36.75-4.64,36.75-16.92C148.08,73.64,138.38,67.93,128.68,67.93Zm-1,25.54c-3.88.44-10,.76-16.38.87l-4.85.1.76-2.58c.64-2.37,6.14-16.17,20.37-16.17,4.74,0,11.53,1.3,11.53,9.59C139.14,90.13,134.18,92.83,127.71,93.47ZM219,68c-6.79,0-18.54,3.56-20.48,11.85l-1,4.1h.76c5.28-5.6,12.5-8,19.83-8,5.82,0,12,1.5,12,8.73a22.84,22.84,0,0,1-.65,5.6l-.21,1.08h-5.61c-31.68,0-34.16,13.47-34.16,20.15,0,14.33,17.68,15.52,19.83,15.52,13.15,0,22.42-5.71,25.43-19.72l3.13-14.66a35.16,35.16,0,0,0,1.08-8.19C238.94,68.26,222.88,68,219,68Zm8.08,33c-2.15,10.78-3.66,18.1-16.7,18.1-2.26,0-11.1-.64-11.1-8.29,0-10.13,12.39-12,19.83-12h8.4ZM69,67.93A23.55,23.55,0,0,0,49.14,78.82c-2.47-7.76-8.83-10.89-16.49-10.89C15.73,67.93,8.3,81.94,6,92.4L.32,119.34A13.08,13.08,0,0,0,0,121.28C0,124.73,2.26,126,5.28,126h2.8l6.79-32.33c1.51-7.22,5.18-17.57,17.25-17.57,4.2,0,10.34,2,10.34,11.43a27.45,27.45,0,0,1-.75,6.14l-5.28,25.65A16.35,16.35,0,0,0,36,121.6c0,3.34,2.26,4.42,5.17,4.42h3l6.89-32.65c1.51-6.9,4.53-17.25,17.68-17.25,3.34,0,10,1,10,10.46a36.63,36.63,0,0,1-1,7.11l-5.28,25.65a10.64,10.64,0,0,0-.32,1.83c0,3.23,2.05,4.85,5,4.85h3.12l6.9-32.65a26.38,26.38,0,0,0,.75-7.22C87.94,69.44,75.23,67.93,69,67.93Zm384.2-6.25h28.35c5.6,0,6.35-3.34,7.32-8.08h-33c-6.69,0-10.78,1.29-12.29,8.51l-12.5,58.52a9.31,9.31,0,0,0-.22,1.73c0,3.12,2.7,3.66,5.18,3.66h3.44l7.33-34.27h23.07c5.38,0,6.57-3.23,7.54-8h-29.1ZM685.43,47.89A6.2,6.2,0,1,0,691.25,54,5.93,5.93,0,0,0,685.43,47.89ZM511.69,68c-19.39,0-31.9,16.81-31.9,36.43,0,21,18.54,22.63,23.61,22.63,19.4,0,31-17.68,31-37C534.44,69.66,516.22,68,511.69,68ZM504,119.23c-6.89,0-14.76-3.77-14.76-15.73,0-12.61,7.65-27.48,21.45-27.48,9.37,0,14.33,5,14.33,14.76C525.06,103.28,518.05,119.23,504,119.23Zm174.5-6.46a23.45,23.45,0,0,1,.32-4l6.9-32.55a10.1,10.1,0,0,0,.21-1.72,5.09,5.09,0,0,0-5.39-5.39h-2.69L669.48,109a25.28,25.28,0,0,0-.54,5c0,8.52,5.28,12.61,13.8,12.61,5.17,0,7.33-3.45,8.3-8H686.4C683.92,118.59,678.54,117.94,678.54,112.77ZM714,101.67c27.59,0,36.75-4.64,36.75-16.92,0-11.11-9.7-16.82-19.4-16.82C703.86,67.93,698.8,98,698.8,102v.43c0,23.06,17.45,24.68,22.74,24.68,6.68,0,18.86-1.62,20.47-10.13l.76-3.88h-.54a29.22,29.22,0,0,1-18.54,6c-4.42,0-15.41-1.18-15.41-15.3a15.68,15.68,0,0,1,.22-2.15Zm-4.09-9.81c.64-2.37,6.14-16.17,20.37-16.17,4.74,0,11.53,1.3,11.53,9.59,0,4.85-5,7.55-11.43,8.19-3.88.44-10,.76-16.38.87l-4.85.1ZM573.56,68c-19.4,0-31.9,16.81-31.9,36.43,0,21,18.53,22.63,23.6,22.63,19.4,0,31-17.68,31-37C596.3,69.66,578.08,68,573.56,68Zm-7.65,51.19c-6.9,0-14.77-3.77-14.77-15.73,0-12.61,7.65-27.48,21.45-27.48,9.37,0,14.33,5,14.33,14.76C586.92,103.28,579.92,119.23,565.91,119.23ZM660.64,49.4h-2.26l-6.68,31C649.86,71.6,641.35,68,634.88,68c-25,0-30.82,26.73-30.82,34.38,0,22.09,19.29,24.68,23,24.68,24.14,0,28.88-22.63,30.71-31.15L666,56.72a10.15,10.15,0,0,0,.32-2.47C666.35,50.47,663.88,49.4,660.64,49.4Zm-32.33,69.72c-2.91,0-14.66-.86-14.66-17.24,0-6.14,4-25.86,20.8-25.86,5.39,0,14.34,1.61,14.34,14.65C648.79,101.45,645.23,119.12,628.31,119.12Z"/></svg>